<svg xmlns="http://www.w3.org/2000/svg" version="1.1" xmlns:xlink="http://www.w3.org/1999/xlink" x="0" y="0" viewBox="0 0 24 24" style="enable-background:new 0 0 512 512" xml:space="preserve" class="ringicon"><g><g fill="none"><path d="M8.846 6.732 4.657 7.99l1.491 1.088a7.658 7.658 0 0 1 2.045-.6zM7.745 4.791l-3.239.972-.275 1.376 4.502-1.352zM19.891 7.618a1.136 1.136 0 0 0 .51-1.47.907.907 0 0 0-1.2-.36l-.021.01a.736.736 0 0 1-.6.09.8.8 0 0 1-.42-.43l-.01-.03a.911.911 0 0 0-1.141-.47.01.01 0 0 0-.01.01 1.152 1.152 0 0 0-.519 1.47l1.019 2c.141.03.281.06.411.1zM10.391 21.638l-.013-.012a5.314 5.314 0 0 1-1.048.111 5.51 5.51 0 0 1-2.994-.875 5.284 5.284 0 0 1-1.331-1.179 5.586 5.586 0 0 1 4.325-9.126 5.652 5.652 0 0 1 1.223.132c.022.005.043.013.065.019a5.586 5.586 0 0 1 2.782 9.263 4.437 4.437 0 0 0 1.155.536A6.789 6.789 0 0 0 12.281 10a6.7 6.7 0 0 0-2.951-.672 6.828 6.828 0 0 0-6.819 6.82 6.744 6.744 0 0 0 .729 3.068 6.785 6.785 0 0 0 8.305 3.378 6.558 6.558 0 0 1-1.154-.956z" fill="" opacity="1"></path><path d="M17.971 9.538a5.6 5.6 0 0 0-1.091-.25 5.354 5.354 0 0 0-.989-.08 6.766 6.766 0 0 0-2.367.419 7.693 7.693 0 0 1 1.255 1 5.239 5.239 0 0 1 1.112-.122 5.586 5.586 0 0 1 5.58 5.58 5.573 5.573 0 0 1-6.87 5.427l-.042-.013h-.008a5.413 5.413 0 0 1-2.2-1.1 5.567 5.567 0 0 1-.494-8.157 4.608 4.608 0 0 0-1.234-.557 6.816 6.816 0 0 0 .211 9.06l.049.05.014.016a.46.46 0 0 1 .028.034l.008.01a6.412 6.412 0 0 0 1.82 1.35.611.611 0 0 0 .07.03 6.928 6.928 0 0 0 6.86-.4 7.089 7.089 0 0 0 1.861-1.81 6.886 6.886 0 0 0-3.57-10.49z" fill="" opacity="1"></path><path d="M4.681 16.148a4.652 4.652 0 0 0 1.053 2.942 4.4 4.4 0 0 0 1.1.977 4.639 4.639 0 0 0 2.8.709 7.741 7.741 0 0 1-.087-9.254c-.076 0-.145-.024-.222-.024a4.654 4.654 0 0 0-4.644 4.65zM15.6 20.712a4.548 4.548 0 0 0 3.531-1.312 4.7 4.7 0 0 0 .765-.975 4.6 4.6 0 0 0 .635-2.341 4.645 4.645 0 0 0-4.64-4.64c-.131 0-.251.013-.373.022a7.726 7.726 0 0 1 .077 9.242zM12.63 19.381a4.6 4.6 0 0 0-.02-6.527 4.573 4.573 0 0 0-1.359 3.234 4.63 4.63 0 0 0 1.379 3.293z" fill="" opacity="1"></path></g><path d="m19.161 8.988 1.139-.53h.01a2.083 2.083 0 0 0 .94-2.71 1.833 1.833 0 0 0-2.329-.85 1.8 1.8 0 0 0-2.351-.77 2.072 2.072 0 0 0-.929 2.71v.01l.729 1.44a3.838 3.838 0 0 0-.479-.02 7.771 7.771 0 0 0-3.43.79 7.625 7.625 0 0 0-3.131-.67c-.035 0-.068 0-.1.005l.827-2.217a.468.468 0 0 0-.106-.494L8.213 3.931a.469.469 0 0 0-.468-.119L3.967 4.946a.47.47 0 0 0-.325.357L3.158 7.72a.468.468 0 0 0 .184.471l1.89 1.379a7.758 7.758 0 0 0-3.662 6.578 7.675 7.675 0 0 0 .83 3.49 7.714 7.714 0 0 0 6.93 4.27 7.7 7.7 0 0 0 3.262-.734h.009a7.747 7.747 0 0 0 7.6-.56 8.048 8.048 0 0 0 2.109-2.05 7.831 7.831 0 0 0-3.149-11.58zm-2.68-2.55A1.152 1.152 0 0 1 17 4.968a.01.01 0 0 1 .01-.01.911.911 0 0 1 1.141.47l.01.03a.8.8 0 0 0 .42.43.736.736 0 0 0 .6-.09l.021-.01a.907.907 0 0 1 1.2.36 1.136 1.136 0 0 1-.51 1.47l-1.98.92c-.13-.04-.27-.07-.411-.1zM4.506 5.763l3.239-.972.988 1-4.5 1.352zm.151 2.227 4.189-1.258-.653 1.749a7.658 7.658 0 0 0-2.045.6zm.8 13.783a6.922 6.922 0 0 1-2.22-2.557 6.744 6.744 0 0 1-.729-3.068 6.828 6.828 0 0 1 6.822-6.82 6.7 6.7 0 0 1 2.951.672 6.793 6.793 0 0 1 2.277 10.5 4.437 4.437 0 0 1-1.155-.536 5.584 5.584 0 0 0-2.781-9.262c-.022-.006-.043-.014-.065-.019a5.6 5.6 0 0 0-6.817 5.465 5.59 5.59 0 0 0 1.265 3.535 5.284 5.284 0 0 0 1.331 1.179 5.51 5.51 0 0 0 2.994.875 5.314 5.314 0 0 0 1.048-.111l.013.012a6.558 6.558 0 0 0 1.154.956 6.986 6.986 0 0 1-6.085-.821zm10.058-10.3c.122-.009.242-.022.373-.022a4.645 4.645 0 0 1 4.64 4.64 4.6 4.6 0 0 1-.635 2.341 4.7 4.7 0 0 1-.765.975 4.548 4.548 0 0 1-3.528 1.305 7.726 7.726 0 0 0-.077-9.242zm-2.905 1.381a4.6 4.6 0 0 1 .02 6.527 4.63 4.63 0 0 1-1.379-3.293 4.573 4.573 0 0 1 1.359-3.234zm-3.058-1.332a7.741 7.741 0 0 0 .087 9.254 4.639 4.639 0 0 1-2.8-.709 4.4 4.4 0 0 1-1.1-.977A4.646 4.646 0 0 1 9.33 11.5c.077 0 .146.018.222.022zm11.989 8.506a7.089 7.089 0 0 1-1.861 1.81 6.928 6.928 0 0 1-6.86.4.611.611 0 0 1-.07-.03 6.412 6.412 0 0 1-1.82-1.35l-.008-.01a.46.46 0 0 0-.028-.034l-.014-.014-.049-.05a6.816 6.816 0 0 1-.211-9.06 4.608 4.608 0 0 1 1.234.557 5.567 5.567 0 0 0 .496 8.153 5.413 5.413 0 0 0 2.2 1.1h.008l.042.013a5.581 5.581 0 0 0 6.87-5.427 5.586 5.586 0 0 0-5.58-5.58 5.239 5.239 0 0 0-1.112.122 7.693 7.693 0 0 0-1.255-1 6.766 6.766 0 0 1 2.367-.419 5.354 5.354 0 0 1 .989.08 5.6 5.6 0 0 1 1.091.25 6.886 6.886 0 0 1 3.57 10.49zM4.92 2.891a.469.469 0 0 0 .448.334.484.484 0 0 0 .132-.019.47.47 0 0 0 .315-.584l-.438-1.471a.469.469 0 0 0-.9.269zM2.13 4.453a.469.469 0 0 0 .242-.87L1 2.756a.469.469 0 0 0-.484.8l1.372.827a.476.476 0 0 0 .242.07zM8.546 2.42a.471.471 0 0 0 .625-.22l.69-1.447a.469.469 0 0 0-.846-.4l-.69 1.445a.469.469 0 0 0 .221.622z" fill="#ffffff" opacity="1" data-original="#000000" class=""></path></g></svg>